<svg xmlns="http://www.w3.org/2000/svg" width="141" height="37" viewBox="0 0 141 37" fill="none">
<path fill-rule="evenodd" clip-rule="evenodd" d="M64.0325 23.853C64.0325 23.5033 63.9695 23.1665 63.8435 22.8396C63.7165 22.5136 63.5135 22.2232 63.2365 21.9654C62.9575 21.7096 62.5975 21.5061 62.1555 21.354C61.7125 21.2019 61.1885 21.1268 60.5815 21.1268H55.6135V26.5091H60.5815C61.8205 26.5091 62.7055 26.2424 63.2365 25.706C63.7675 25.1697 64.0325 24.5523 64.0325 23.853M63.4265 14.1365C63.4265 13.4609 63.1725 12.9067 62.6675 12.4751C62.1615 12.0444 61.3025 11.8291 60.0885 11.8291H55.6135V16.6878H60.0885C61.3025 16.6878 62.1615 16.431 62.6675 15.9184C63.1725 15.4067 63.4265 14.8121 63.4265 14.1365M70.0245 24.098C70.0245 25.1934 69.8035 26.1831 69.3615 27.0691C68.9185 27.9542 68.3245 28.7118 67.5785 29.341C66.8325 29.9702 65.9605 30.4591 64.9615 30.8088C63.9625 31.1584 62.9075 31.3333 61.7955 31.3333H49.7734V7.00488H60.8855C62.2755 7.00488 63.5135 7.17478 64.6015 7.51259C65.6885 7.8504 66.6045 8.32156 67.3505 8.92804C68.0965 9.53353 68.6595 10.2615 69.0385 11.113C69.4175 11.9634 69.6075 12.8889 69.6075 13.8915C69.6075 14.7775 69.3545 15.6626 68.8485 16.5476C68.3435 17.4336 67.4965 18.1329 66.3075 18.6456V18.7848C66.9145 18.9952 67.4455 19.2975 67.9015 19.6936C68.3565 20.0897 68.7405 20.5332 69.0575 21.0221C69.3735 21.511 69.6135 22.0237 69.7785 22.5591C69.9425 23.0954 70.0245 23.609 70.0245 24.098" fill="white"/>
<path fill-rule="evenodd" clip-rule="evenodd" d="M73.3236 13.9261C73.4496 12.8307 73.7606 11.8459 74.2536 10.9727C74.7456 10.0986 75.3716 9.3528 76.1306 8.73546C76.8876 8.11811 77.7416 7.64596 78.6896 7.32C79.6376 6.99306 80.6306 6.83008 81.6676 6.83008C82.8806 6.83008 84.0056 6.97034 85.0426 7.24987C86.0786 7.52941 86.9756 7.96007 87.7346 8.54284C88.4936 9.12562 89.0876 9.84866 89.5166 10.71C89.9466 11.5723 90.1626 12.5867 90.1626 13.7513C90.1626 14.6373 89.9976 15.5105 89.6696 16.3728C89.3406 17.2351 88.8856 17.9808 88.3036 18.61L80.7946 26.5091H90.1246V31.3333H73.2476V27.0346L83.7906 15.8828C84.2706 15.3712 84.5116 14.7884 84.5116 14.1355C84.5116 13.5063 84.2776 12.9364 83.8096 12.4227C83.3416 11.9101 82.6656 11.6543 81.7806 11.6543C81.0476 11.6543 80.4026 11.8933 79.8466 12.3704C79.2906 12.8485 78.9366 13.6466 78.7846 14.7647L73.3236 13.9261Z" fill="white"/>
<path fill-rule="evenodd" clip-rule="evenodd" d="M109.049 23.853C109.049 23.5033 108.986 23.1665 108.86 22.8396C108.733 22.5136 108.53 22.2232 108.253 21.9654C107.974 21.7096 107.614 21.5061 107.172 21.354C106.73 21.2019 106.205 21.1268 105.598 21.1268H100.63V26.5091H105.598C106.836 26.5091 107.722 26.2424 108.253 25.706C108.783 25.1697 109.049 24.5523 109.049 23.853M108.443 14.1365C108.443 13.4609 108.19 12.9067 107.684 12.4751C107.178 12.0444 106.319 11.8291 105.105 11.8291H100.63V16.6878H105.105C106.319 16.6878 107.178 16.431 107.684 15.9184C108.19 15.4067 108.443 14.8121 108.443 14.1365M115.041 24.098C115.041 25.1934 114.82 26.1831 114.377 27.0691C113.935 27.9542 113.341 28.7118 112.595 29.341C111.849 29.9702 110.977 30.4591 109.979 30.8088C108.98 31.1584 107.924 31.3333 106.812 31.3333H94.7886V7.00488H105.902C107.291 7.00488 108.53 7.17478 109.618 7.51259C110.705 7.8504 111.621 8.32156 112.367 8.92804C113.112 9.53353 113.676 10.2615 114.055 11.113C114.435 11.9634 114.624 12.8889 114.624 13.8915C114.624 14.7775 114.371 15.6626 113.865 16.5476C113.36 17.4336 112.513 18.1329 111.324 18.6456V18.7848C111.932 18.9952 112.462 19.2975 112.917 19.6936C113.372 20.0897 113.758 20.5332 114.074 21.0221C114.39 21.511 114.63 22.0237 114.795 22.5591C114.959 23.0954 115.041 23.609 115.041 24.098" fill="white"/>
<path fill-rule="evenodd" clip-rule="evenodd" d="M133.395 31.3333L128.124 23.4332L122.89 31.3333H116.291L125.242 18.8895L116.785 7.00488H123.421L128.124 14.3103L132.865 7.00488H139.501L131.044 18.8895L140.032 31.3333H133.395Z" fill="white"/>
<mask id="mask0" mask-type="alpha" maskUnits="userSpaceOnUse" x="0" y="0" width="141" height="37">
<path fill-rule="evenodd" clip-rule="evenodd" d="M0 36.7553H140.032V0H0V36.7553Z" fill="white"/>
</mask>
<g mask="url(#mask0)">
<path fill-rule="evenodd" clip-rule="evenodd" d="M18.605 26.475H26.803V18.3784H18.605V26.475Z" fill="white"/>
<path fill-rule="evenodd" clip-rule="evenodd" d="M10.408 18.3784H18.606V10.2808H10.408V18.3784Z" fill="white"/>
<path fill-rule="evenodd" clip-rule="evenodd" d="M9.786 22.4265H6.308V6.23126H22.704V9.66667L32.491 -0.000488281H0V32.0927L9.786 22.4265Z" fill="white"/>
<path fill-rule="evenodd" clip-rule="evenodd" d="M27.4247 14.3293H30.9027V30.5245H14.5067V27.0891L4.71973 36.7562H37.2108V4.66309L27.4247 14.3293Z" fill="white"/>
</g>
</svg>