<svg width="0" height="0" class="hidden">
  <symbol fill="none" xmlns="http://www.w3.org/2000/svg" viewBox="0 0 236 57" id="app-store">
    <path d="M41.8548 41C37.3899 40.9743 33.6967 31.8599 33.6967 27.2182C33.6967 19.6359 39.3846 17.976 41.5768 17.976C42.5646 17.976 43.6195 18.3639 44.5499 18.7072C45.2005 18.9467 45.8734 19.1939 46.2477 19.1939C46.4717 19.1939 46.9995 18.9836 47.4656 18.7991C48.4595 18.4034 49.6963 17.9116 51.1366 17.9116C51.1391 17.9116 51.1426 17.9116 51.1451 17.9116C52.2205 17.9116 55.4813 18.1476 57.4417 21.0916L57.9009 21.7817L57.24 22.2804C56.2959 22.9928 54.5732 24.2922 54.5732 26.8663C54.5732 29.915 56.5241 31.0875 57.4614 31.6514C57.8751 31.9003 58.3034 32.1569 58.3034 32.7183C58.3034 33.0848 55.3783 40.9545 51.1305 40.9545C50.0911 40.9545 49.3564 40.6421 48.7084 40.3666C48.0527 40.0876 47.487 39.8474 46.5523 39.8474C46.0785 39.8474 45.4794 40.0714 44.8451 40.3091C43.9783 40.6326 42.9972 41 41.884 41H41.8548Z" fill="white"></path>
    <path d="M51.5866 11C51.6973 14.9888 48.8446 17.7561 45.9953 17.5825C45.5258 14.3993 48.8443 11 51.5866 11Z" fill="white"></path>
    <rect x="0.5" y="0.5" width="235" height="56" stroke="white" stroke-linecap="round" stroke-linejoin="round"></rect>
  </symbol>
  <symbol fill="none" xmlns="http://www.w3.org/2000/svg" viewBox="0 0 100 69" id="bitcoin">
    <path d="M48.7 68.3748C45.85 68.3748 34.07 67.6648 23.23 56.8248C11.25 44.8448 14.2 29.0648 16.34 23.9848C18.9 17.9448 21.1 15.2948 28.11 9.82483L30.24 12.5548C23.37 17.9248 21.7 20.2148 19.53 25.3348C17.76 29.5048 15.1 43.7948 25.67 54.3648C36.81 65.5048 49.11 64.9048 49.23 64.8948H91.13L83.07 56.8348L85.52 54.3848L99.5 68.3548H49.33C49.28 68.3548 49.06 68.3748 48.7 68.3748Z" fill="#4FFFCA"></path>
    <path d="M71.39 58.5348L69.26 55.8048C76.13 50.4348 77.8 48.1448 79.97 43.0248C81.74 38.8548 84.4 24.5648 73.83 13.9948C62.69 2.86481 50.4 3.46481 50.27 3.47481H8.37L16.43 11.5348L13.98 13.9948L0 0.0148099H50.17C50.63 -0.0151901 64.06 -0.67519 76.28 11.5448C88.26 23.5248 85.31 39.3048 83.17 44.3748C80.6 50.4248 78.4 53.0648 71.39 58.5348Z" fill="#4FFFCA"></path>
    <path d="M59.62 33.0648C60.3 32.6148 60.98 31.9448 61.44 31.2748C62.12 30.1548 62.58 28.8148 62.58 27.2448C62.58 25.0048 61.67 22.9848 59.85 21.8648C58.03 20.5248 55.76 20.0748 52.58 20.0748H52.35V15.8148H48.94V20.0748H48.26V15.8148H44.85V20.0748H37.58V23.4348H40.53V44.0548H37.58V47.4148H44.85V51.4448H48.26V47.4148H48.94V51.4448H52.35V47.4148H53.49C56.9 47.4148 59.39 46.7448 61.21 45.3948C63.03 44.0548 63.94 42.2548 63.94 39.7948C63.94 38.0048 63.49 36.4348 62.35 35.0848C61.89 34.1848 60.75 33.5148 59.62 33.0648ZM60.07 39.5648C60.07 41.1348 59.62 42.2548 58.48 42.9248C57.34 43.5948 55.75 44.0448 53.48 44.0448H44.62V35.3048H53.48C58.03 35.0848 60.07 36.6548 60.07 39.5648ZM44.63 31.7248V23.4348H52.58C54.62 23.4348 56.21 23.8848 57.12 24.5548C58.03 25.2248 58.71 26.3448 58.71 27.6948C58.71 29.0348 58.26 29.9348 57.35 30.6048C56.21 31.2748 54.62 31.7248 52.81 31.7248H44.63Z" fill="#4FFFCA"></path>
  </symbol>
  <symbol fill="none" xmlns="http://www.w3.org/2000/svg" viewBox="0 0 87 87" id="bitcoin-tel">
    <path d="M78.9 0.430054H34.97C31.07 0.430054 27.74 3.57005 27.74 7.56005V15.6901C25.86 15.1201 23.84 14.6901 21.96 14.6901C11.84 14.6901 3.60999 22.8201 3.60999 32.8001C3.60999 39.5001 7.37 45.6301 13.29 48.7701H5.78V57.4701H0.869995V68.59H5.78V75.4301H0.869995V86.5501H78.76C82.66 86.5501 85.99 83.41 85.99 79.4201V7.56005C85.98 3.57005 82.8 0.430054 78.9 0.430054ZM38 68.59V75.4301H7.95V68.59H38ZM3.02999 66.4501V59.6101H33.09V66.4501H3.02999ZM83.81 73.7201V79.2801C83.81 81.9901 81.5 84.2701 78.75 84.2701H35.26V77.4301H40.17V73.7201H83.81ZM35.26 66.4501V59.6101H40.17V48.4801H30.49C36.41 45.3401 40.17 39.2101 40.17 32.5101C40.17 25.6701 36.12 19.2501 29.91 16.2601V14.6901H83.81V71.4401H40.17V66.3101H35.26V66.4501ZM21.96 48.6301C13 48.6301 5.78 41.5001 5.78 32.6601C5.78 23.8201 13.01 16.6901 21.96 16.6901C30.92 16.6901 38.14 23.8201 38.14 32.6601C38.15 41.5001 30.78 48.6301 21.96 48.6301ZM38 50.7701V57.4701H7.95V50.6301H38V50.7701ZM33.09 77.5701V84.4101H3.02999V77.5701H33.09ZM83.81 7.56005V12.8401H29.91V7.56005C29.91 4.85005 32.22 2.57005 34.97 2.57005H78.9C81.64 2.57005 83.81 4.85005 83.81 7.56005Z" fill="#4FFFCA"></path>
    <path d="M78.7501 86.99H0.430054V75H5.34005V69.02H0.430054V57.03H5.34005V48.33H11.6901C6.40005 44.93 3.18005 39.11 3.18005 32.8C3.18005 22.58 11.6101 14.26 21.9701 14.26C23.5201 14.26 25.3201 14.55 27.3201 15.11V7.56C27.3201 3.39 30.7601 0 34.9801 0H78.9001C83.0401 0 86.4101 3.39 86.4101 7.56V79.42C86.4101 83.6 82.9801 86.99 78.7501 86.99ZM1.30005 86.12H78.7501C82.4901 86.12 85.5401 83.12 85.5401 79.42V7.56C85.5401 3.87 82.5601 0.86 78.8901 0.86H34.9701C31.2301 0.86 28.1801 3.86 28.1801 7.56V16.27L27.6201 16.1C25.4801 15.45 23.5801 15.12 21.9701 15.12C12.0901 15.12 4.05005 23.05 4.05005 32.79C4.05005 39.32 7.67005 45.29 13.5001 48.38L15.0401 49.2H6.21005V57.9H1.30005V68.15H6.21005V75.86H1.30005V86.12ZM33.5201 84.85H2.60005V77.14H33.5201V84.85ZM3.47005 83.98H32.6601V78H3.47005V83.98ZM78.7501 84.71H34.8201V77H39.7301V73.29H84.2401V79.28C84.2401 82.22 81.7301 84.71 78.7501 84.71ZM35.6901 83.84H78.7501C81.2601 83.84 83.3701 81.75 83.3701 79.28V74.15H40.6001V77.86H35.6901V83.84ZM38.4401 75.87H7.51005V68.16H38.4301V75.87H38.4401ZM8.38005 75H37.5701V69.02H8.38005V75ZM84.2401 71.87H39.7401V66.74H35.2601V66.45H34.8301V59.17H39.7401V48.92H28.7401L30.2801 48.1C36.1101 45.01 39.7301 39.04 39.7301 32.51C39.7301 25.81 35.8001 19.58 29.7201 16.65L29.4701 16.53V14.26H84.2401V71.87ZM40.6001 71.01H83.3701V15.13H30.3501V15.99C36.5901 19.11 40.6101 25.57 40.6101 32.51C40.6101 38.82 37.3801 44.64 32.0901 48.05H40.6101V60.04H35.7001V65.87H40.6101V71.01H40.6001ZM33.5201 66.88H2.60005V59.17H33.5201V66.88ZM3.47005 66.02H32.6601V60.04H3.47005V66.02ZM38.4401 57.9H7.51005V50.19H38.4301V57.9H38.4401ZM8.38005 57.03H37.5701V51.05H8.38005V57.03ZM21.9601 49.06C12.8001 49.06 5.34005 41.7 5.34005 32.66C5.34005 23.62 12.7901 16.26 21.9601 16.26C31.1301 16.26 38.5801 23.62 38.5801 32.66C38.5801 41.7 31.1301 49.06 21.9601 49.06ZM21.9601 17.12C13.2701 17.12 6.21005 24.09 6.21005 32.66C6.21005 41.23 13.2801 48.2 21.9601 48.2C30.6401 48.2 37.7101 41.23 37.7101 32.66C37.7101 24.09 30.6501 17.12 21.9601 17.12ZM84.2401 13.27H29.4801V7.56C29.4801 4.62 31.9901 2.14 34.9701 2.14H78.9001C81.8501 2.14 84.2501 4.57 84.2501 7.56V13.27H84.2401ZM30.3501 12.41H83.3801V7.56C83.3801 5.05 81.3701 3 78.9001 3H34.9701C32.4601 3 30.3501 5.09 30.3501 7.56V12.41Z" fill="#4FFFCA"></path>
    <path d="M46.53 67.5901H54.91V48.2001H46.38V67.5901H46.53ZM52.74 50.3401V65.4501H48.55V50.3401H52.74Z" fill="#4FFFCA"></path>
    <path d="M55.34 68.02H45.95V47.77H55.34V68.02ZM46.82 67.16H54.4799V48.63H46.82V67.16ZM53.18 65.89H48.1199V49.9H53.18V65.89ZM48.99 65.02H52.31V50.77H48.99V65.02Z" fill="#4FFFCA"></path>
    <path d="M57.8 67.5899H66.3301V35.9399H57.8V67.5899ZM64.1601 38.0799V65.3099H59.9701V38.0799H64.1601Z" fill="#4FFFCA"></path>
    <path d="M66.76 68.02H57.37V35.5H66.76V68.02ZM58.23 67.16H65.89V36.37H58.23V67.16ZM64.59 65.74H59.53V37.64H64.59V65.74ZM60.4 64.88H63.72V38.51H60.4V64.88Z" fill="#4FFFCA"></path>
    <path d="M77.6001 22.11H69.0701V67.59H77.6001V22.11ZM71.3801 65.45V24.25H75.5701V65.46H71.3801V65.45Z" fill="#4FFFCA"></path>
    <path d="M78.03 68.02H68.64V21.67H78.03V68.02ZM69.5 67.16H77.16V22.54H69.5V67.16ZM76.01 65.89H70.95V23.81H76.01V65.89ZM71.82 65.02H75.14V24.68H71.82V65.02Z" fill="#4FFFCA"></path>
    <path d="M49.42 27.0999L54.19 32.5199L65.03 21.9699V25.6799H67.2V18.3999H59.54V20.5399H63.3L54.34 29.3799L49.57 23.9599L42.34 31.2299L43.78 32.6599L49.42 27.0999Z" fill="#4FFFCA"></path>
    <path d="M43.78 33.27L41.72 31.24L49.58 23.33L54.35 28.75L62.23 20.97H59.1V17.96H67.63V26.1H64.6V22.99L54.16 33.14L49.39 27.72L43.78 33.27ZM42.95 31.23L43.78 32.05L49.44 26.47L54.21 31.89L65.46 20.94V25.24H66.76V18.83H59.97V20.1H64.35L54.31 30L49.54 24.59L42.95 31.23Z" fill="#4FFFCA"></path>
    <path d="M57.8 6.28003H54.48V9.56003H57.8V6.28003Z" fill="#4FFFCA"></path>
    <path d="M58.23 9.98998H54.04V5.84998H58.23V9.98998ZM54.91 9.12998H57.37V6.70998H54.91V9.12998Z" fill="#4FFFCA"></path>
    <path d="M1.88 9.26997C4.34 9.26997 6.22 11.12 6.36 13.4H6.07L6.36 13.69C6.36 13.69 6.36 13.69 6.36 13.83V14.54L7.52 15.54L8.39 14.68L8.68 14.25V13.68C8.68 11.26 10.7 9.25997 13.16 9.25997H13.88L15.04 8.25997L14.32 7.39997L13.89 6.96997H13.31H13.17C10.71 6.96997 8.83 5.11997 8.69 2.83997H8.53C8.53 2.69997 8.53 2.69997 8.53 2.54997L8.67 1.83997L7.51 0.719971L6.65 1.56997L6.36 1.99997V2.56997V2.70997L6.07 2.99997H6.36C6.21 5.27997 4.19 7.13997 1.88 7.13997C1.88 7.13997 1.74 7.13997 1.59 7.13997H1.16L0 8.12997L0.87 8.98997L1.3 9.26997H1.88ZM7.51 6.13997C7.94 6.99997 8.67 7.56997 9.53 8.13997C8.66 8.70997 7.94 9.27997 7.51 10.14C6.93 9.27997 6.35 8.70997 5.49 8.13997C6.36 7.70997 6.94 6.98997 7.51 6.13997Z" fill="#4FFFCA"></path>
    <path d="M28.9 32.37C29.33 32.08 29.77 31.66 30.06 31.23C30.49 30.52 30.78 29.66 30.78 28.66C30.78 27.23 30.2 25.95 29.05 25.24C27.89 24.38 26.45 24.1 24.43 24.1H24.29V21.39H22.12V24.1H21.69V21.39H19.52V24.1H14.9V26.24H16.78V39.36H14.9V41.5H19.52V44.07H21.69V41.5H22.12V44.07H24.29V41.5H25C27.17 41.5 28.76 41.07 29.91 40.22C31.07 39.36 31.64 38.22 31.64 36.66C31.64 35.52 31.35 34.52 30.63 33.67C30.35 33.09 29.62 32.66 28.9 32.37ZM29.19 36.51C29.19 37.51 28.9 38.22 28.18 38.65C27.46 39.08 26.45 39.36 25 39.36H19.36V33.8H25C27.89 33.66 29.19 34.65 29.19 36.51ZM19.36 31.52V26.24H24.42C25.72 26.24 26.73 26.53 27.31 26.95C27.89 27.38 28.32 28.09 28.32 28.95C28.32 29.81 28.03 30.38 27.45 30.8C26.73 31.23 25.72 31.51 24.56 31.51H19.36V31.52Z" fill="#4FFFCA"></path>
  </symbol>
  <symbol fill="none" xmlns="http://www.w3.org/2000/svg" viewBox="0 0 84 84" id="exchange">
    <path d="M0 62.1824C0.457267 60.33 0.708764 58.4089 1.41753 56.648C4.27545 49.6728 9.44257 45.419 16.896 44.1154C25.8356 42.5603 34.7523 47.4773 38.5248 55.939C41.8628 63.486 39.9194 72.954 33.8149 78.5342C30.5455 81.5301 26.7501 83.3368 22.3604 83.8628C22.1775 83.8857 21.9946 83.9543 21.8116 84C20.6685 84 19.5253 84 18.3593 84C17.8334 83.9085 17.2847 83.7942 16.7588 83.7027C9.44257 82.3077 4.29831 78.1683 1.46326 71.3074C0.731628 69.5236 0.457267 67.5339 0 65.6357C0 64.4694 0 63.3259 0 62.1824ZM20.0512 47.4773C10.9744 47.5459 3.58955 54.9556 3.63527 63.9434C3.681 72.9997 11.1345 80.4095 20.1198 80.3637C29.1737 80.318 36.5814 72.8625 36.5128 63.8976C36.4442 54.7955 29.0365 47.4087 20.0512 47.4773Z" fill="#4FFFCA"></path>
    <path d="M63.3315 84C58.5073 80.3866 53.6832 76.7732 48.859 73.1598C48.5161 72.9082 48.1731 72.6109 47.8987 72.2679C47.35 71.6275 47.3729 70.8271 47.8987 70.1639C48.1274 69.8894 48.3789 69.6379 48.6532 69.432C53.2488 65.9787 57.8214 62.5483 62.417 59.095C63.0572 58.6147 63.6973 58.2488 64.5433 58.569C65.6636 59.0035 66.098 60.3986 65.3435 61.3362C65.1377 61.6106 64.8405 61.8393 64.5661 62.0452C61.5939 64.2864 58.6217 66.5047 55.6494 68.746C55.4436 68.906 55.2379 69.0661 54.9178 69.3406C63.4687 69.3406 71.8595 69.3406 80.3647 69.3406C80.3647 69.0204 80.3647 68.7002 80.3647 68.38C80.3647 61.016 80.3647 53.6749 80.3647 46.3109C80.3647 44.6871 81.0278 43.7952 82.2167 43.841C83.3827 43.8638 84 44.7329 84 46.3109C84 54.4067 84 62.5026 84 70.5984C84 72.4508 83.4055 73.0454 81.5536 73.0454C73.0256 73.0454 64.4975 73.0454 55.9695 73.0454C55.6723 73.0454 55.3979 73.0454 55.1007 73.0454C55.0778 73.1141 55.055 73.1598 55.0321 73.2284C55.2607 73.4114 55.4665 73.5714 55.6951 73.7544C58.6217 75.9499 61.5482 78.1454 64.4747 80.3408C66.1666 81.5987 66.1437 82.8336 64.4747 84.0228C64.086 84 63.6973 84 63.3315 84Z" fill="#4FFFCA"></path>
    <path d="M0 12.3039C0.502994 11.2747 1.32608 10.9545 2.44638 10.9545C10.9744 10.9774 19.5025 10.9774 28.0305 10.9774C28.3277 10.9774 28.6021 10.9774 28.8993 10.9774C28.9222 10.9317 28.945 10.8631 28.9679 10.8173C28.7393 10.6344 28.5335 10.4743 28.3048 10.2913C25.3783 8.09585 22.4518 5.90036 19.5253 3.70488C19.2281 3.47619 18.908 3.22462 18.6794 2.95019C18.1535 2.33271 18.1535 1.37219 18.6565 0.754707C19.1595 0.0914888 20.0283 -0.137207 20.7828 0.205837C21.0572 0.320185 21.3087 0.503141 21.5602 0.663229C26.1786 4.11654 30.797 7.56984 35.3925 11.046C35.8269 11.3662 36.2384 11.8693 36.4213 12.3496C36.7643 13.333 36.1241 13.9962 35.3925 14.5451C32.4431 16.7634 29.4937 18.9589 26.5444 21.1772C24.8068 22.4808 23.0463 23.8073 21.2858 25.1108C20.6456 25.5911 19.9369 25.7283 19.2052 25.3166C18.5651 24.9736 18.2907 24.4019 18.2907 23.6929C18.2907 22.9382 18.748 22.4351 19.3195 22.0234C22.3375 19.7593 25.3555 17.4952 28.3734 15.2312C28.5792 15.0711 28.785 14.911 29.0822 14.6365C20.5313 14.6365 12.1404 14.6365 3.63528 14.6365C3.63528 14.9796 3.63528 15.2998 3.63528 15.6199C3.63528 22.9153 3.63528 30.2107 3.63528 37.5061C3.63528 37.8034 3.63528 38.1007 3.61241 38.3981C3.54382 39.3128 2.9951 39.9303 2.12629 40.0904C1.3718 40.2276 0.640174 39.8617 0.228634 39.1299C0.160044 38.9927 0.0914535 38.8326 0.0228634 38.6954C0 29.9134 0 21.1086 0 12.3039Z" fill="#4FFFCA"></path>
    <path d="M63.8117 40.1818C52.7001 40.0675 43.669 30.9425 43.8062 19.988C43.9663 8.85051 53.043 -0.114365 64.0403 -1.67892e-05C75.1519 0.114331 84.1372 9.2393 84 20.2167C83.84 31.3084 74.7632 40.2962 63.8117 40.1818ZM63.926 3.63625C54.9178 3.61338 47.5101 11.0003 47.4872 20.0566C47.4415 29.0672 54.8492 36.477 63.9031 36.4998C72.8884 36.5227 80.3419 29.113 80.3647 20.0795C80.3647 11.1146 72.957 3.65912 63.926 3.63625Z" fill="#4FFFCA"></path>
    <path d="M20.0512 73.0226C14.9984 72.9997 10.9516 68.9289 10.9745 63.8747C10.9973 58.8434 15.067 54.7726 20.1198 54.7726C25.1497 54.7726 29.2194 58.8892 29.2194 63.9205C29.1966 68.9747 25.104 73.0226 20.0512 73.0226ZM20.0969 69.3863C23.0692 69.3863 25.607 66.8478 25.5613 63.8747C25.5384 60.9246 23.092 58.4546 20.1198 58.4318C17.1704 58.386 14.6097 60.9246 14.6097 63.8976C14.5869 66.8707 17.1247 69.3863 20.0969 69.3863Z" fill="#4FFFCA"></path>
    <path d="M73.0256 20.1024C73.0027 25.1337 68.9331 29.2045 63.8803 29.2045C58.8503 29.2045 54.7806 25.0879 54.7806 20.0566C54.7806 15.0253 58.8732 10.9545 63.926 10.9774C68.9788 10.9774 73.0256 15.071 73.0256 20.1024ZM63.9031 14.6137C60.9309 14.6137 58.3931 17.1522 58.4388 20.1252C58.4616 23.0754 60.9309 25.5453 63.8803 25.5682C66.8296 25.5911 69.3903 23.0754 69.3903 20.1024C69.3903 17.1293 66.8754 14.5908 63.9031 14.6137Z" fill="#4FFFCA"></path>
  </symbol>
  <symbol fill="none" xmlns="http://www.w3.org/2000/svg" viewBox="0 0 20 20" id="facebook">
    <g clip-path="url(#clip0_92_819)">
      <path d="M9.76159 -0.015625C4.37845 -0.015625 0.0244353 4.33839 0.0244353 9.72153C-0.0151467 15.1443 4.37845 19.4983 9.76159 19.4983C15.1447 19.4983 19.4988 15.1443 19.4988 9.76111C19.4988 4.37797 15.1447 -0.015625 9.76159 -0.015625ZM12.3344 9.72153H10.6324C10.6324 12.4131 10.6324 15.738 10.6324 15.738H8.13873C8.13873 15.738 8.13873 12.4527 8.13873 9.72153H6.95128V7.58411H8.13873V6.19874C8.13873 5.20919 8.61372 3.6655 10.672 3.6655H12.5323V5.72376C12.5323 5.72376 11.424 5.72376 11.1865 5.72376C10.9491 5.72376 10.672 5.8425 10.672 6.31749V7.58411H12.5719L12.3344 9.72153Z" fill="#5E5E5E"></path>
    </g>
    <defs>
      <clipPath id="clip0_92_819">
        <rect width="19.4985" height="19.4887" fill="white"></rect>
      </clipPath>
    </defs>
  </symbol>
  <symbol fill="none" xmlns="http://www.w3.org/2000/svg" viewBox="0 0 20 20" id="instagram">
    <g clip-path="url(#clip0_92_830)">
      <path fill-rule="evenodd" clip-rule="evenodd" d="M9.94569 0.000976562C15.3182 0.000976562 19.6793 4.36211 19.6793 9.73462C19.6793 15.1071 15.3182 19.4683 9.94569 19.4683C4.57317 19.4683 0.212036 15.1071 0.212036 9.73462C0.212036 4.36211 4.57317 0.000976562 9.94569 0.000976562ZM9.94569 3.65109C8.29173 3.65109 8.08641 3.6587 7.43623 3.68912C6.78985 3.71953 6.345 3.82219 5.96097 3.97048C5.56174 4.12637 5.22334 4.33549 4.88495 4.67389C4.54655 5.01228 4.33743 5.35068 4.18154 5.74991C4.02945 6.13774 3.92679 6.57879 3.90018 7.22517C3.86976 7.87535 3.86215 8.08066 3.86215 9.73462C3.86215 11.3886 3.86976 11.5939 3.90018 12.2441C3.93059 12.8905 4.03325 13.3353 4.18154 13.7193C4.33743 14.1186 4.54655 14.457 4.88495 14.7954C5.22334 15.1338 5.56174 15.3429 5.96097 15.4988C6.3488 15.6509 6.78985 15.7535 7.43623 15.7801C8.08641 15.8106 8.29173 15.8182 9.94569 15.8182C11.5996 15.8182 11.805 15.8106 12.4551 15.7801C13.1015 15.7497 13.5464 15.6471 13.9304 15.4988C14.3296 15.3429 14.668 15.1338 15.0064 14.7954C15.3448 14.457 15.5539 14.1186 15.7098 13.7193C15.8619 13.3315 15.9646 12.8905 15.9912 12.2441C16.0216 11.5939 16.0292 11.3886 16.0292 9.73462C16.0292 8.08066 16.0216 7.87535 15.9912 7.22517C15.9608 6.57879 15.8581 6.13393 15.7098 5.74991C15.5539 5.35068 15.3448 5.01228 15.0064 4.67389C14.668 4.33549 14.3296 4.12637 13.9304 3.97048C13.5426 3.81839 13.1015 3.71573 12.4551 3.68912C11.805 3.6587 11.5958 3.65109 9.94569 3.65109ZM9.94569 4.74613C11.5692 4.74613 11.7631 4.75373 12.4057 4.78035C12.9989 4.80696 13.322 4.90582 13.535 4.98947C13.8201 5.09973 14.0217 5.23281 14.2346 5.44574C14.4475 5.65866 14.5806 5.86018 14.6908 6.14534C14.7745 6.35826 14.8733 6.68145 14.9 7.2746C14.9304 7.91717 14.9342 8.10728 14.9342 9.73462C14.9342 11.362 14.9266 11.5521 14.9 12.1947C14.8733 12.7878 14.7745 13.111 14.6908 13.3239C14.5806 13.6091 14.4475 13.8106 14.2346 14.0235C14.0217 14.2364 13.8201 14.3695 13.535 14.4798C13.322 14.5634 12.9989 14.6623 12.4057 14.6889C11.7631 14.7193 11.573 14.7231 9.94569 14.7231C8.31834 14.7231 8.12823 14.7155 7.48566 14.6889C6.89251 14.6623 6.56932 14.5634 6.3564 14.4798C6.07124 14.3695 5.86972 14.2364 5.6568 14.0235C5.44387 13.8106 5.31079 13.6091 5.20053 13.3239C5.11688 13.111 5.01802 12.7878 4.99141 12.1947C4.96099 11.5521 4.95719 11.362 4.95719 9.73462C4.95719 8.10728 4.96479 7.91717 4.99141 7.2746C5.01802 6.68145 5.11688 6.35826 5.20053 6.14534C5.31079 5.86018 5.44387 5.65866 5.6568 5.44574C5.86972 5.23281 6.07124 5.09973 6.3564 4.98947C6.56932 4.90582 6.89251 4.80696 7.48566 4.78035C8.12823 4.75373 8.32214 4.74613 9.94569 4.74613ZM9.94569 6.60921C8.21948 6.60921 6.82027 8.00842 6.82027 9.73462C6.82027 11.4608 8.21948 12.86 9.94569 12.86C11.6719 12.86 13.0711 11.4608 13.0711 9.73462C13.0711 8.00842 11.6719 6.60921 9.94569 6.60921ZM9.94569 11.7612C8.82403 11.7612 7.91911 10.8525 7.91911 9.73462C7.91911 8.61297 8.82784 7.70805 9.94569 7.70805C11.0635 7.70805 11.9723 8.61678 11.9723 9.73462C11.9723 10.8525 11.0635 11.7612 9.94569 11.7612ZM13.9228 6.48754C13.9228 6.89057 13.5958 7.21756 13.1928 7.21756C12.7897 7.21756 12.4627 6.89057 12.4627 6.48754C12.4627 6.08451 12.7897 5.75752 13.1928 5.75752C13.5958 5.75752 13.9228 6.08451 13.9228 6.48754Z" fill="#5E5E5E"></path>
    </g>
    <defs>
      <clipPath id="clip0_92_830">
        <rect width="19.4692" height="19.4692" fill="white" transform="translate(0.211182)"></rect>
      </clipPath>
    </defs>
  </symbol>
  <symbol fill="none" xmlns="http://www.w3.org/2000/svg" viewBox="0 0 21 26" id="login">
    <path d="M20.5 12.5166C20.5 15.6821 20.5019 18.8471 20.4991 22.0126C20.4981 23.4456 19.6721 24.5934 18.3769 24.9405C18.0883 25.0176 17.7794 25.0447 17.4794 25.0452C14.8052 25.0528 8.6304 25.0533 5.95621 25.0486C4.19664 25.0452 2.96309 23.8169 2.94935 22.0526C2.93987 20.8438 2.94745 19.635 2.94745 18.4262C2.94745 18.3829 2.94698 18.3391 2.95124 18.2958C2.98678 17.9392 3.23368 17.7073 3.56446 17.7192C3.8924 17.7307 4.12603 17.9792 4.12792 18.3415C4.13266 19.246 4.12982 20.1501 4.12982 21.0547C4.12982 21.368 4.12935 21.6807 4.12982 21.994C4.13172 23.1547 4.83782 23.8683 5.98701 23.8688C8.53136 23.8698 14.5763 23.8702 17.1207 23.8674C17.3794 23.8669 17.6419 23.8693 17.8964 23.8303C18.6997 23.7074 19.2911 23.0214 19.311 22.2044C19.32 21.8393 19.3138 21.4741 19.3138 21.109C19.3138 15.0827 19.3143 9.05643 19.3134 3.03017C19.3134 2.15275 18.8561 1.48575 18.0917 1.26913C17.9031 1.21581 17.6998 1.19391 17.5031 1.19344C14.8208 1.1901 8.63751 1.1901 5.95479 1.19201C4.85204 1.19296 4.13219 1.9147 4.13029 3.01874C4.1284 4.24465 4.13077 5.47104 4.12887 6.69696C4.1284 7.05021 3.97154 7.27254 3.68388 7.34538C3.36969 7.42489 3.06166 7.24826 2.98062 6.93262C2.95503 6.83312 2.9484 6.72648 2.9484 6.62317C2.9465 5.42296 2.94224 4.22323 2.9484 3.02302C2.95598 1.5205 3.86491 0.356955 5.26338 0.0651162C5.49843 0.0160796 5.74438 0.00417755 5.98559 0.00370147C8.64225 -0.000583286 14.8 -0.00105603 17.4566 0.00180047C18.9717 0.00322872 20.1024 0.87589 20.4204 2.29748C20.4806 2.56599 20.4957 2.84926 20.4962 3.12538C20.5019 6.25563 20.5 9.38636 20.5 12.5166Z" fill="#EBE7E5"></path>
    <path d="M11.2757 13.2049C11.1246 13.2049 11.0302 13.2049 10.9355 13.2049C8.39112 13.2049 3.25408 13.142 0.709265 13.141C0.298398 13.141 0.0709281 12.983 0.0112173 12.6645C-0.0532325 12.3212 0.166181 12.0151 0.511651 11.9741C0.623016 11.9608 0.736277 11.9637 0.848591 11.9637C3.34128 11.9632 8.42619 12.0266 10.9189 12.0266C11.0198 12.0266 11.1208 12.0266 11.2876 12.0266C11.0881 11.7847 10.9322 11.5938 10.7739 11.4048C10.5066 11.0854 10.2336 10.7707 9.97062 10.4479C9.71803 10.138 9.73604 9.79232 10.0047 9.56856C10.2701 9.34766 10.6222 9.39146 10.8748 9.68949C11.5819 10.5236 12.2861 11.3601 12.9879 12.198C13.2173 12.4717 13.2249 12.7364 13.0045 12.9997C12.2974 13.8452 11.5847 14.6855 10.8743 15.5277C10.7042 15.7296 10.4957 15.8281 10.2303 15.7548C10 15.6915 9.82371 15.5344 9.82087 15.3049C9.8185 15.1159 9.88532 14.8898 10.0005 14.7417C10.3668 14.2685 10.7696 13.8243 11.1577 13.3687C11.189 13.3311 11.2151 13.2892 11.2757 13.2049Z" fill="#EBE7E5"></path>
  </symbol>
  <symbol fill="none" xmlns="http://www.w3.org/2000/svg" viewBox="0 0 172 35" id="login-main">
    <path d="M44.4116 34.1445C43.8687 33.8237 43.4343 33.5029 43.2172 32.9682C42.8914 32.4335 42.7828 31.8988 42.7828 31.2572C42.7828 30.6156 42.8914 30.0809 43.2172 29.5462C43.5429 29.0115 43.9773 28.6907 44.4116 28.3699C44.9546 28.0491 45.4975 27.9421 46.149 27.9421C46.6919 27.9421 47.1263 28.0491 47.5606 28.156C47.995 28.263 48.3207 28.5838 48.6465 28.9046L48.2121 29.3323C47.6692 28.7976 47.0177 28.5838 46.2576 28.5838C45.7146 28.5838 45.2803 28.6907 44.846 28.9046C44.4116 29.1184 44.0859 29.4393 43.8687 29.867C43.6515 30.2948 43.5429 30.7225 43.5429 31.2572C43.5429 31.7919 43.6515 32.2196 43.8687 32.6474C44.0859 33.0751 44.4116 33.3959 44.846 33.6098C45.2803 33.8237 45.7146 33.9306 46.2576 33.9306C47.0177 33.9306 47.6692 33.7167 48.2121 33.1821L48.6465 33.6098C48.3207 33.9306 47.995 34.1445 47.5606 34.3584C47.1263 34.5722 46.6919 34.5722 46.149 34.5722C45.4975 34.5722 44.9546 34.4653 44.4116 34.1445Z" fill="#EBE7E5"></path>
    <path d="M54.6186 34.5722L53.0984 32.4335C52.8813 32.4335 52.7727 32.4335 52.5555 32.4335H50.8181V34.4653H50.1666V27.9421H52.6641C53.5328 27.9421 54.1843 28.156 54.6186 28.5838C55.053 29.0115 55.3787 29.5462 55.3787 30.1878C55.3787 30.7225 55.2702 31.1503 54.9444 31.4711C54.7272 31.7919 54.2929 32.1127 53.8585 32.2196L55.4873 34.4653H54.6186V34.5722ZM54.0757 31.4711C54.4015 31.1503 54.6186 30.8294 54.6186 30.2948C54.6186 29.7601 54.4015 29.3323 54.0757 29.1184C53.75 28.6907 53.207 28.5838 52.5555 28.5838H50.8181V31.8988H52.5555C53.207 31.8988 53.75 31.6849 54.0757 31.4711Z" fill="#EBE7E5"></path>
    <path d="M59.1793 32.2196V34.4653H58.5278V32.2196L55.9218 27.9421H56.6819L58.9622 31.578L61.2425 27.9421H61.894L59.1793 32.2196Z" fill="#EBE7E5"></path>
    <path d="M67.2147 28.5838C67.649 29.0115 67.9748 29.5462 67.9748 30.1878C67.9748 30.9364 67.7576 31.4711 67.2147 31.7919C66.7803 32.2196 66.0202 32.4335 65.2601 32.4335H63.5227V34.4653H62.8712V27.9421H65.3687C66.1288 27.9421 66.7803 28.156 67.2147 28.5838ZM66.6717 31.4711C66.9975 31.1503 67.2147 30.8294 67.2147 30.2948C67.2147 29.7601 66.9975 29.3323 66.6717 29.1184C66.346 28.7976 65.803 28.6907 65.1515 28.6907H63.4141V32.0058H65.1515C65.9116 31.8988 66.346 31.6849 66.6717 31.4711Z" fill="#EBE7E5"></path>
    <path d="M70.5808 28.5838H68.1919V27.9421H73.5126V28.5838H71.1237V34.5722H70.5808V28.5838Z" fill="#EBE7E5"></path>
    <path d="M75.6844 34.1445C75.1415 33.8237 74.7071 33.5029 74.3814 32.9682C74.0556 32.4335 73.947 31.8988 73.947 31.2572C73.947 30.6156 74.0556 30.0809 74.3814 29.5462C74.7071 29.0115 75.1415 28.6907 75.6844 28.3699C76.2273 28.0491 76.7703 27.9421 77.4218 27.9421C78.0733 27.9421 78.7248 28.0491 79.1592 28.3699C79.7021 28.6907 80.1364 29.0115 80.3536 29.5462C80.6794 30.0809 80.7879 30.6156 80.7879 31.2572C80.7879 31.8988 80.6794 32.4335 80.3536 32.9682C80.0278 33.5029 79.5935 33.8237 79.1592 34.1445C78.6162 34.4653 78.0733 34.5722 77.4218 34.5722C76.7703 34.5722 76.2273 34.4653 75.6844 34.1445ZM78.942 33.6098C79.3763 33.3959 79.7021 33.0751 79.9193 32.6474C80.1364 32.2196 80.245 31.7919 80.245 31.2572C80.245 30.7225 80.1364 30.2948 79.9193 29.867C79.7021 29.4393 79.3763 29.1184 78.942 28.9046C78.5076 28.6907 78.0733 28.5838 77.5304 28.5838C76.9874 28.5838 76.5531 28.6907 76.1187 28.9046C75.6844 29.1184 75.3586 29.4393 75.1415 29.867C74.9243 30.2948 74.8157 30.7225 74.8157 31.2572C74.8157 31.7919 74.9243 32.2196 75.1415 32.6474C75.3586 33.0751 75.6844 33.3959 76.1187 33.6098C76.5531 33.8237 76.9874 33.9306 77.5304 33.9306C78.0733 33.9306 78.5076 33.8237 78.942 33.6098Z" fill="#EBE7E5"></path>
    <path d="M85.0227 27.9421H85.7828V34.4653H85.1313V27.9421H85.0227Z" fill="#EBE7E5"></path>
    <path d="M88.389 34.3584C87.9546 34.2514 87.6289 34.0376 87.3031 33.7167L87.6289 33.1821C87.846 33.3959 88.1718 33.6098 88.6061 33.7167C89.0405 33.8237 89.3662 33.9306 89.8006 33.9306C90.3435 33.9306 90.8864 33.8237 91.1036 33.6098C91.4294 33.3959 91.5379 33.0751 91.5379 32.7543C91.5379 32.5404 91.4294 32.3266 91.3208 32.1127C91.2122 32.0057 90.995 31.7919 90.7778 31.7919C90.5607 31.6849 90.2349 31.578 89.8006 31.4711C89.2576 31.3641 88.9319 31.2572 88.6061 31.1503C88.2804 31.0433 88.0632 30.8294 87.846 30.6156C87.6289 30.4017 87.5203 30.0809 87.5203 29.6531C87.5203 29.3323 87.6289 29.0115 87.7374 28.7976C87.9546 28.4768 88.1718 28.263 88.6061 28.156C89.0405 28.0491 89.4748 27.9421 90.0177 27.9421C90.4521 27.9421 90.7778 27.9421 91.1036 28.0491C91.4294 28.156 91.7551 28.263 92.0809 28.4768L91.8637 29.0115C91.5379 28.7976 91.3208 28.6907 90.995 28.5838C90.6693 28.4768 90.3435 28.4768 90.0177 28.4768C89.4748 28.4768 89.0405 28.5838 88.7147 28.7976C88.389 29.0115 88.2804 29.3323 88.2804 29.6531C88.2804 29.867 88.389 30.0809 88.4975 30.2948C88.6061 30.4017 88.8233 30.6156 89.1491 30.6156C89.3662 30.7225 89.692 30.8294 90.1263 30.9364C90.5607 31.0433 90.995 31.1503 91.3208 31.2572C91.6465 31.3641 91.8637 31.578 92.0809 31.7919C92.298 32.0057 92.4066 32.3266 92.4066 32.7543C92.4066 33.0751 92.298 33.3959 92.1895 33.6098C91.9723 33.9306 91.7551 34.1445 91.3208 34.2514C90.995 34.3584 90.4521 34.4653 89.9092 34.4653C89.2576 34.5722 88.8233 34.4653 88.389 34.3584Z" fill="#EBE7E5"></path>
    <path d="M96.6414 34.3584C96.2071 34.2514 95.8813 34.0376 95.5555 33.7167L95.8813 33.1821C96.0985 33.3959 96.4242 33.6098 96.8586 33.7167C97.2929 33.8237 97.6187 33.9306 98.053 33.9306C98.596 33.9306 99.1389 33.8237 99.3561 33.6098C99.6818 33.3959 99.7904 33.0751 99.7904 32.7543C99.7904 32.5404 99.6818 32.3266 99.5732 32.1127C99.4646 32.0057 99.2475 31.7919 99.0303 31.7919C98.8131 31.6849 98.4874 31.578 98.053 31.4711C97.5101 31.3641 97.1843 31.2572 96.8586 31.1503C96.5328 31.0433 96.3156 30.8294 96.0985 30.6156C95.8813 30.4017 95.7727 30.0809 95.7727 29.6531C95.7727 29.3323 95.8813 29.0115 95.9899 28.7976C96.2071 28.4768 96.4242 28.263 96.8586 28.156C97.2929 28.0491 97.7273 27.9421 98.2702 27.9421C98.596 27.9421 99.0303 27.9421 99.3561 28.0491C99.6818 28.156 100.008 28.263 100.333 28.4768L100.116 29.0115C99.7904 28.7976 99.5732 28.6907 99.2475 28.5838C98.9217 28.4768 98.596 28.4768 98.2702 28.4768C97.7273 28.4768 97.2929 28.5838 96.9672 28.7976C96.6414 29.0115 96.5328 29.3323 96.5328 29.6531C96.5328 29.867 96.6414 30.0809 96.75 30.2948C96.8586 30.4017 97.0757 30.6156 97.4015 30.6156C97.6187 30.7225 97.9444 30.8294 98.3788 30.9364C98.8131 31.0433 99.2475 31.1503 99.5732 31.2572C99.899 31.3641 100.116 31.578 100.333 31.7919C100.55 32.0057 100.659 32.3266 100.659 32.7543C100.659 33.0751 100.55 33.3959 100.442 33.6098C100.225 33.9306 100.008 34.1445 99.5732 34.2514C99.2475 34.3584 98.7045 34.4653 98.1616 34.4653C97.6187 34.5722 97.0757 34.4653 96.6414 34.3584Z" fill="#EBE7E5"></path>
    <path d="M102.071 27.9421H102.722V34.4653H102.071V27.9421Z" fill="#EBE7E5"></path>
    <path d="M111.843 27.9421V34.4653H111.192V29.2254L108.586 33.6098H108.26L105.654 29.2254V34.4653H105.003V27.9421H105.545L108.477 32.7543L111.301 27.9421H111.843Z" fill="#EBE7E5"></path>
    <path d="M118.467 28.5838C118.902 29.0115 119.227 29.5462 119.227 30.1878C119.227 30.9364 119.01 31.4711 118.467 31.7919C118.033 32.2196 117.273 32.4335 116.513 32.4335H114.775V34.4653H114.015V27.9421H116.513C117.381 27.9421 118.033 28.156 118.467 28.5838ZM118.033 31.4711C118.359 31.1503 118.576 30.8294 118.576 30.2948C118.576 29.7601 118.359 29.3323 118.033 29.1184C117.707 28.7976 117.164 28.6907 116.513 28.6907H114.775V32.0058H116.513C117.164 31.8988 117.598 31.6849 118.033 31.4711Z" fill="#EBE7E5"></path>
    <path d="M120.748 27.9421H121.399V33.9306H125.091V34.5722H120.639V27.9421H120.748Z" fill="#EBE7E5"></path>
    <path d="M131.063 33.9306V34.5722H126.394V28.0491H130.955V28.5838H127.045V30.9364H130.52V31.578H127.045V33.9306H131.063Z" fill="#EBE7E5"></path>
    <path d="M84.4799 0.780029H89.692V23.1299H84.4799V0.780029Z" fill="#EBE7E5"></path>
    <path d="M73.947 0.780029V14.3611L62.6541 0.780029H58.3106H57.5505V13.0778C57.5505 15.1096 57.1162 16.6067 56.2475 17.5692C55.3788 18.5316 54.1844 18.9594 52.5556 18.9594C49.1894 18.9594 47.5606 17.0345 47.5606 12.9709V0.780029H42.3485V13.2917C42.3485 16.4998 43.2172 19.0663 45.0632 20.8842C46.8005 22.5952 49.4066 23.5576 52.6642 23.5576C55.9217 23.5576 58.4192 22.7022 60.2652 20.8842C62.0026 19.1732 62.9798 16.6067 62.9798 13.2917V8.58644L63.8485 9.54888L75.0329 23.1299H79.3763V0.780029H73.947Z" fill="#EBE7E5"></path>
    <path d="M31.3813 0.780029H3.36616C1.5202 0.780029 0 2.27715 0 3.98814V31.6849C0 33.5028 1.5202 34.9999 3.36616 34.9999H31.3813C33.2273 34.9999 34.7475 33.5028 34.7475 31.6849V3.98814C34.7475 2.27715 33.2273 0.780029 31.3813 0.780029ZM32.25 17.89H17.048V32.8612H16.2879C16.2879 24.9478 9.77273 18.6385 1.84596 18.6385V17.89H17.048V2.91877H17.6995C17.6995 10.8321 24.2146 17.1414 32.1414 17.1414V17.89H32.25Z" fill="#EBE7E5"></path>
    <path d="M97.7273 22.3813C96.2071 21.8467 95.0127 21.205 94.2526 20.3495L95.1212 18.5316C95.8813 19.2802 96.9672 19.9218 98.3788 20.4565C99.6819 20.8842 101.093 21.205 102.505 21.205C104.46 21.205 105.98 20.8842 106.957 20.1357C107.934 19.494 108.477 18.5316 108.477 17.3553C108.477 16.4998 108.26 15.7512 107.717 15.2165C107.174 14.6819 106.523 14.3611 105.763 14.0402C105.003 13.8264 103.917 13.5056 102.505 13.1847C100.876 12.757 99.4647 12.4362 98.4874 12.0084C97.5101 11.6876 96.6415 11.046 95.8814 10.2974C95.2298 9.54888 94.7955 8.47951 94.7955 7.08932C94.7955 6.01995 95.1212 4.95058 95.6642 4.09508C96.2071 3.23958 97.1844 2.49102 98.3788 1.95634C99.5733 1.42165 101.093 0.780029 102.939 0.780029C104.242 0.780029 105.437 0.886966 106.74 1.31472C108.043 1.74246 109.02 2.06328 109.889 2.7049L109.129 4.52283C108.26 3.98814 107.174 3.45346 106.088 3.13265C105.003 2.81184 104.025 2.7049 102.939 2.7049C100.985 2.7049 99.4647 3.02571 98.4874 3.77427C97.5101 4.52283 96.9672 5.48527 96.9672 6.66157C96.9672 7.51707 97.1844 8.26563 97.7273 8.80032C98.2702 9.335 98.9218 9.76275 99.7904 9.97663C100.551 10.1905 101.745 10.5113 103.048 10.8321C104.677 11.2599 105.98 11.5807 107.066 12.0084C108.043 12.3292 108.912 12.9709 109.672 13.7194C110.323 14.468 110.758 15.5374 110.758 16.9275C110.758 17.9969 110.432 19.0663 109.889 19.9218C109.346 20.7773 108.369 21.5258 107.066 22.0605C105.871 22.5952 104.242 22.8091 102.397 22.8091C100.876 23.2368 99.2475 22.916 97.7273 22.3813Z" fill="#EBE7E5"></path>
    <path d="M120.096 2.91877H112.169V0.886963H130.303V2.91877H122.376V23.023H119.987L120.096 2.91877Z" fill="#EBE7E5"></path>
    <path d="M149.957 20.9911V23.023H134.104V0.886963H149.523V2.91877H136.492V10.7252H148.111V12.6501H136.492V20.8842H149.957V20.9911Z" fill="#EBE7E5"></path>
    <path d="M169.285 23.023L162.01 13.2917L154.843 23.023H152.129L160.707 11.6876L152.672 0.993896H155.386L162.119 9.97662L168.851 0.993896H171.348L163.422 11.6876L172 23.1299H169.285V23.023Z" fill="#EBE7E5"></path>
  </symbol>
  <symbol fill="none" xmlns="http://www.w3.org/2000/svg" viewBox="0 0 82 82" id="referal">
    <path d="M81.9799 31.7296C81.419 32.5314 80.6376 32.7519 79.696 32.7519C70.3401 32.7318 60.9841 32.7318 51.6281 32.7318C49.825 32.7318 49.2641 32.2107 49.2841 30.4067C49.3041 28.6028 49.0838 26.7788 49.5245 24.9949C50.6865 20.3447 53.5714 17.298 58.2194 15.9751C58.9807 15.7546 59.0207 15.5942 58.6 14.9729C57.8588 13.9105 57.4581 12.6678 57.3779 11.385C57.2177 8.89953 57.0574 6.41408 58.4598 4.16915C60.1026 1.5033 62.4666 0.0200421 65.632 -1.86969e-06C68.8175 -0.0200459 71.3418 1.38303 72.8043 4.14911C74.7476 7.79711 74.5873 11.5854 72.5639 15.2134C72.2032 15.8548 72.5839 15.8348 72.9846 15.935C77.2719 17.1176 80.1167 19.8235 81.5392 24.0328C81.7395 24.614 81.8397 25.2153 82 25.8167C81.9799 27.781 81.9799 29.7653 81.9799 31.7296ZM65.6521 29.3244C69.6188 29.3244 73.5856 29.3244 77.5724 29.3244C78.7344 29.3244 78.7544 29.3244 78.7344 28.1217C78.7344 27.6607 78.6743 27.2197 78.6342 26.7587C78.2536 22.4092 74.6274 19.0017 70.2599 18.9616C67.1747 18.9416 64.0694 18.9616 60.9841 18.9616C59.8822 18.9616 58.8004 19.2021 57.8187 19.6832C54.2526 21.407 52.6098 24.3334 52.6298 28.242C52.6298 29.3244 52.6298 29.3244 53.6716 29.3244C57.6584 29.3244 61.6452 29.3244 65.6521 29.3244ZM70.6005 9.60107C70.6005 9.0198 70.6205 8.53874 70.6005 8.05768C70.5003 5.47201 68.3166 3.36739 65.6921 3.34735C63.0877 3.3273 60.8438 5.43192 60.7637 8.03764C60.7236 8.93962 60.7437 9.8416 60.7637 10.7436C60.8038 12.768 62.0459 14.5319 63.9091 15.2334C65.8123 15.955 67.8358 15.474 69.2582 14.0108C70.4803 12.7279 70.7207 11.1645 70.6005 9.60107Z" fill="#4FFFCA"></path>
    <path d="M50.3059 81.98C49.5446 81.5189 49.2441 80.8575 49.2842 79.9555C49.3843 78.0112 49.0838 76.067 49.5847 74.1427C50.7867 69.5527 53.6917 66.5862 58.2394 65.2833C58.9206 65.0829 59.0608 64.9426 58.6201 64.3212C57.8588 63.2388 57.4581 61.976 57.378 60.6531C57.2377 58.2479 57.0775 55.8426 58.3596 53.6377C59.9423 50.9118 62.2864 49.3684 65.4317 49.2882C68.6572 49.188 71.1014 50.6712 72.8243 53.3772C74.2468 55.6221 74.1266 58.1075 73.9663 60.593C73.8661 62.0362 73.4053 63.3591 72.5639 64.5417C72.3035 64.9025 72.3235 65.0829 72.7843 65.2031C77.913 66.5661 80.8781 69.9536 81.98 75.0848C81.98 77.1894 81.9599 79.2941 82 81.3987C82 81.8797 81.8998 81.98 81.419 81.98C71.0613 81.98 60.6836 81.98 50.3059 81.98ZM65.6321 78.7328C69.679 78.7328 73.7259 78.7128 77.7728 78.7529C78.5541 78.7529 78.8346 78.5123 78.7344 77.7507C78.6743 77.1894 78.6543 76.6282 78.6142 76.087C78.2336 71.7575 74.5874 68.35 70.2199 68.2899C67.1747 68.2498 64.1495 68.2498 61.1043 68.2899C59.3013 68.3099 57.6584 68.8511 56.196 69.9536C53.6917 71.8176 52.5898 74.3632 52.5898 77.43C52.5898 78.7529 52.5898 78.7529 53.8519 78.7529C57.7987 78.7328 61.7054 78.7328 65.6321 78.7328ZM60.7437 58.6688C60.7437 59.2501 60.7237 59.7512 60.7437 60.2723C60.8439 62.8379 62.9875 64.8624 65.6321 64.8624C68.3166 64.8824 70.4803 62.8379 70.5805 60.2322C70.6206 59.2701 70.6005 58.308 70.5805 57.3659C70.5204 55.3816 69.138 53.5976 67.2148 52.9562C65.2915 52.3148 63.1278 52.9562 61.8656 54.4796C60.8239 55.7223 60.6235 57.1855 60.7437 58.6688Z" fill="#4FFFCA"></path>
    <path d="M1.04182 81.98C0.260481 81.4989 -0.0199975 80.7974 0.0200709 79.8753C0.100208 77.6304 -0.180271 75.3654 0.601063 73.1606C2.04353 69.0917 4.84831 66.4659 8.99539 65.3033C9.69659 65.1029 9.79676 64.9426 9.37604 64.3412C8.61474 63.2589 8.21406 61.9961 8.13392 60.6732C7.97365 58.2278 7.87348 55.7824 9.1757 53.5175C10.8586 50.6111 14.3846 48.8071 17.53 49.3483C21.2563 49.9897 24.1012 52.6756 24.602 56.2034C24.9627 58.749 25.0228 61.3146 23.8207 63.6998C23.8007 63.7399 23.7806 63.8 23.7606 63.8401C23.1395 65.0227 23.1395 65.0227 24.3817 65.4036C29.3501 66.9269 32.756 71.517 32.796 76.7284C32.796 77.7908 32.756 78.8531 32.8161 79.9355C32.8561 80.8174 32.5356 81.4789 31.7943 81.9399C21.5168 81.98 11.2793 81.98 1.04182 81.98ZM16.3479 78.7328C17.6702 78.7328 19.0125 78.7328 20.3348 78.7328C23.0995 78.7328 25.8842 78.7128 28.6489 78.7529C29.29 78.7529 29.5305 78.5524 29.4704 77.9311C29.4102 77.2897 29.4102 76.6483 29.3501 76.0269C28.9294 71.7174 25.3032 68.3701 20.9758 68.3099C17.9306 68.2699 14.9055 68.2699 11.8603 68.3099C10.0372 68.33 8.37433 68.8912 6.8918 70.0137C4.28736 71.978 3.30568 74.6639 3.32571 77.8308C3.32571 78.5725 3.56612 78.7729 4.28736 78.7729C8.31423 78.7128 12.3211 78.7328 16.3479 78.7328ZM21.3164 58.769C21.3164 58.288 21.3365 57.8069 21.3164 57.3258C21.2163 54.7602 19.0726 52.7358 16.4481 52.7157C13.7836 52.6957 11.5798 54.7402 11.4997 57.3258C11.4596 58.2278 11.4796 59.1298 11.4997 60.0318C11.5598 62.2968 12.9822 64.1007 15.1659 64.702C17.2094 65.2633 19.4132 64.4014 20.5952 62.5974C21.3565 61.4349 21.3966 60.112 21.3164 58.769Z" fill="#4FFFCA"></path>
    <path d="M16.3679 32.7519C11.6799 32.7519 6.99194 32.7519 2.30393 32.7519C0.62106 32.7519 0.0200342 32.1907 0.0400684 30.507C0.0601026 28.723 -0.160274 26.9191 0.260445 25.1753C1.38236 20.4248 4.28732 17.3581 8.99536 15.9951C9.61642 15.8147 9.85683 15.7145 9.39604 15.053C8.61471 13.9506 8.21402 12.6879 8.13389 11.3649C7.95358 8.87949 7.83337 6.39404 9.21574 4.14911C10.8585 1.48326 13.2226 0 16.408 0C19.5935 0 22.0977 1.40308 23.5602 4.16915C25.4835 7.8372 25.3232 11.6055 23.2998 15.2334C23.0393 15.6945 23.1395 15.7746 23.6003 15.8949C28.7291 17.318 31.7943 20.6654 32.6758 25.9169C32.9763 27.6808 32.816 29.4847 32.7359 31.2686C32.6958 32.1706 31.9345 32.7118 30.8326 32.7118C28.5087 32.7318 26.2047 32.7118 23.8808 32.7118C21.3765 32.7519 18.8722 32.7519 16.3679 32.7519ZM16.388 29.3244C20.3948 29.3244 24.3816 29.3244 28.3885 29.3244C29.4703 29.3244 29.4904 29.3244 29.4703 28.2019C29.4703 27.6607 29.4102 27.1396 29.3501 26.6184C28.9494 22.4092 25.3032 19.0218 21.076 18.9817C17.9506 18.9416 14.8453 18.9616 11.72 18.9817C10.6181 18.9817 9.53628 19.2222 8.55461 19.7033C5.02859 21.407 3.36575 24.2933 3.36575 28.1819C3.36575 29.3444 3.36575 29.3444 4.48766 29.3444C8.4344 29.3244 12.4012 29.3244 16.388 29.3244ZM21.3364 9.5209C21.3364 9.03984 21.3565 8.55879 21.3364 8.07773C21.2363 5.47201 19.1126 3.38744 16.4481 3.34735C13.8236 3.28722 11.5597 5.45197 11.4796 8.07773C11.4596 8.95967 11.4596 9.8416 11.4796 10.7035C11.5397 13.0286 13.0623 14.8927 15.3061 15.4339C17.4097 15.955 19.6135 14.9328 20.7354 13.0086C21.3765 11.9061 21.3565 10.7035 21.3364 9.5209Z" fill="#4FFFCA"></path>
    <path d="M45.5779 10.4028C46.86 10.4028 48.1422 10.3828 49.4244 10.4028C50.5263 10.4229 51.2676 11.0041 51.3277 11.9262C51.4078 12.9083 50.7868 13.67 49.6248 13.7301C46.8801 13.8704 44.1354 13.8704 41.3907 13.7301C40.2688 13.67 39.6678 12.9284 39.7279 11.9863C39.7679 11.0442 40.4892 10.4229 41.591 10.4229C42.9133 10.3828 44.2356 10.4028 45.5779 10.4028Z" fill="#4FFFCA"></path>
    <path d="M41.01 71.6372C39.6877 71.6372 38.3455 71.6573 37.0232 71.6372C35.8812 71.6172 35.1801 70.9758 35.1801 69.9936C35.1801 69.0115 35.8812 68.35 37.0232 68.35C39.7078 68.33 42.3924 68.33 45.0769 68.35C46.1588 68.35 46.86 69.0115 46.88 69.9535C46.9001 70.9557 46.1989 71.6372 45.0769 71.6372C43.7347 71.6573 42.3723 71.6372 41.01 71.6372Z" fill="#4FFFCA"></path>
    <path d="M13.7435 41.01C13.7435 42.3129 13.7636 43.6157 13.7435 44.9186C13.7235 46.0411 13.0624 46.7827 12.1007 46.7827C11.1391 46.7827 10.4379 46.0411 10.4379 44.9186C10.4178 42.2728 10.4178 39.647 10.4379 37.0012C10.4379 35.8587 11.099 35.1572 12.0807 35.1371C13.0624 35.1371 13.7235 35.8387 13.7235 36.9812C13.7636 38.3442 13.7435 39.6871 13.7435 41.01Z" fill="#4FFFCA"></path>
    <path d="M71.6423 41.0501C71.6423 42.353 71.6624 43.6558 71.6423 44.9587C71.6223 46.0611 70.9211 46.8228 69.9595 46.8027C69.0178 46.7827 68.3367 46.0611 68.3367 44.9988C68.3166 42.3329 68.3166 39.6671 68.3367 37.0012C68.3367 35.8788 69.0379 35.1572 70.0196 35.1772C70.9812 35.1772 71.6223 35.8788 71.6423 36.9812C71.6624 38.3241 71.6423 39.6871 71.6423 41.0501Z" fill="#4FFFCA"></path>
    <path d="M34.3386 13.7101C33.397 13.7101 32.6758 12.9885 32.6758 12.0464C32.6958 11.1645 33.4371 10.4229 34.2986 10.4229C35.2001 10.4229 35.9614 11.1845 35.9614 12.1065C35.9414 13.0085 35.2402 13.7101 34.3386 13.7101Z" fill="#4FFFCA"></path>
  </symbol>
  <symbol fill="none" xmlns="http://www.w3.org/2000/svg" viewBox="0 0 66 85" id="wallet">
    <path d="M65.51 84.96H0V38.66H65.51V84.96ZM3.47 81.5H62.04V42.13H3.47V81.5Z" fill="#4FFFCA"></path>
    <path d="M31.81 33.88L19.88 21.94L22.33 19.49L28.34 25.51V4.17999H31.81V33.88Z" fill="#4FFFCA"></path>
    <path d="M38.5399 29.69H35.0699V0L47.0099 11.93L44.5499 14.39L38.5399 8.37V29.69Z" fill="#4FFFCA"></path>
    <path d="M65.5099 69.22H53.5699C49.2999 69.22 45.8199 65.74 45.8199 61.47V58.7C45.8199 54.43 49.2999 50.95 53.5699 50.95H65.5099V69.22ZM53.5699 54.42C51.2099 54.42 49.2899 56.34 49.2899 58.7V61.48C49.2899 63.84 51.2099 65.76 53.5699 65.76H62.0399V54.42H53.5699Z" fill="#4FFFCA"></path>
  </symbol>
  <symbol fill="none" xmlns="http://www.w3.org/2000/svg" viewBox="0 0 20 20" id="youtube">
    <g clip-path="url(#clip0_92_824)">
      <path d="M8.21741 12.2749L12.3023 10.2373L8.21741 8.18994V12.2749Z" fill="#5E5E5E"></path>
      <path d="M9.85521 0.487793C4.47362 0.487793 0.105957 4.85545 0.105957 10.237C0.105957 15.6186 4.47362 19.9863 9.85521 19.9863C15.2368 19.9863 19.6045 15.6186 19.6045 10.237C19.6045 4.85545 15.2368 0.487793 9.85521 0.487793ZM15.9777 11.8652C15.9777 13.2106 14.8761 14.3122 13.5307 14.3122H6.17974C4.83434 14.3122 3.73268 13.2106 3.73268 11.8652V8.59916C3.73268 7.25377 4.83434 6.1521 6.17974 6.1521H13.5307C14.8761 6.1521 15.9777 7.25377 15.9777 8.59916V11.8652Z" fill="#5E5E5E"></path>
    </g>
    <defs>
      <clipPath id="clip0_92_824">
        <rect width="19.4985" height="19.4887" fill="white" transform="translate(0.105957 0.487793)"></rect>
      </clipPath>
    </defs>
  </symbol>
</svg>