<svg width="138" height="32" viewBox="0 0 138 32" fill="none" xmlns="http://www.w3.org/2000/svg">
<path fill-rule="evenodd" clip-rule="evenodd" d="M91.2927 14.2593C89.7607 14.2593 88.3769 14.889 87.4032 15.8989C86.4519 14.8851 85.0968 14.2514 83.5951 14.2514C82.7524 14.2514 81.8928 14.5598 81.2297 15.0053V14.8896C81.2297 14.6766 81.0528 14.5146 80.847 14.5146H78.7108C78.5063 14.5146 78.3281 14.6766 78.3281 14.8896V25.5759C78.3281 25.7888 78.505 25.9508 78.7108 25.9508H80.8523C81.0567 25.9508 81.2349 25.7888 81.2349 25.5759V19.4536C81.2349 18.1524 82.2925 17.0995 83.5951 17.0995C84.899 17.0995 85.9552 18.1537 85.9552 19.4536V25.5759C85.9552 25.7888 86.1321 25.9508 86.3378 25.9508H88.4293C88.4346 25.9508 88.4385 25.9508 88.4411 25.9508H88.4883C88.6927 25.9508 88.8709 25.7888 88.8709 25.5759V19.4576C88.8709 18.1629 89.9508 17.1047 91.2927 17.1047C92.6346 17.1047 93.7144 18.1629 93.7144 19.4576V25.5746C93.7144 25.7875 93.8913 25.9495 94.097 25.9495H96.2462C96.4519 25.9495 96.6288 25.7875 96.6288 25.5746V19.4576C96.6275 16.5821 94.2346 14.2593 91.2927 14.2593ZM107.314 19.971C106.498 19.4758 105.451 19.2381 104.539 19.0317L104.52 19.0277C103.857 18.8775 103.275 18.7443 102.856 18.5483C102.441 18.3549 102.252 18.1328 102.252 17.8271C102.252 17.5632 102.351 17.3294 102.587 17.1452C102.83 16.9557 103.231 16.8094 103.851 16.7729C104.907 16.7729 105.725 16.7977 106.278 16.8225C106.555 16.8343 106.766 16.8473 106.907 16.8565C106.977 16.8617 107.031 16.8643 107.066 16.8669C107.085 16.8682 107.098 16.8695 107.106 16.8695L107.115 16.8708H107.118L107.127 16.8721H107.136C107.3 16.8721 107.449 16.8408 107.551 16.735C107.642 16.6409 107.66 16.5207 107.668 16.4619C107.668 16.458 107.669 16.4541 107.669 16.4515C107.673 16.4266 107.676 16.4084 107.68 16.3914L107.685 16.3692V15.0588C107.685 14.8994 107.674 14.7531 107.613 14.6408C107.537 14.501 107.41 14.4566 107.308 14.4343L107.298 14.433L107.289 14.4317H107.285L107.275 14.4304C107.266 14.4291 107.253 14.4278 107.235 14.4265C107.2 14.4226 107.148 14.4174 107.078 14.4108C106.938 14.3978 106.728 14.3808 106.445 14.3638C105.879 14.3298 105.019 14.2959 103.843 14.2959H103.839H103.835C102.328 14.352 101.185 14.7701 100.416 15.4311C99.644 16.0935 99.264 16.9871 99.264 17.9539C99.264 18.5901 99.4108 19.1114 99.6702 19.5412C99.9284 19.9697 100.291 20.295 100.705 20.5497C101.522 21.0501 102.568 21.2918 103.478 21.5021L103.497 21.506C104.161 21.6589 104.744 21.7948 105.164 21.9933C105.578 22.1893 105.77 22.4153 105.77 22.7302C105.77 22.9928 105.649 23.2266 105.354 23.4056C105.047 23.5911 104.55 23.7152 103.819 23.7152C102.988 23.7152 102.081 23.6264 101.379 23.5362C101.028 23.4918 100.73 23.4461 100.519 23.4121C100.415 23.3951 100.331 23.3808 100.274 23.3716C100.259 23.369 100.246 23.3664 100.234 23.3651C100.225 23.3638 100.215 23.3625 100.209 23.3612L100.193 23.3586L100.188 23.3572L100.17 23.3533H100.151C100.002 23.3533 99.8602 23.3808 99.7607 23.4814C99.6728 23.5689 99.6532 23.6852 99.6453 23.7387C99.644 23.7426 99.644 23.7466 99.644 23.7492C99.6388 23.7779 99.6348 23.7962 99.6309 23.8145L99.6257 23.8354L99.5431 25.3143V25.3195C99.5431 25.4162 99.5575 25.5311 99.61 25.6343C99.6637 25.7441 99.7607 25.8421 99.9087 25.88L99.914 25.8813L99.9192 25.8826L99.9258 25.8486C99.9192 25.8826 99.9192 25.8826 99.9192 25.8826H99.9205L99.9245 25.8839C99.9271 25.8852 99.9323 25.8852 99.9389 25.8865C99.9507 25.8891 99.969 25.8917 99.9926 25.8969C100.04 25.9061 100.108 25.9178 100.198 25.9322C100.379 25.961 100.643 25.9988 100.983 26.038C101.662 26.1151 102.642 26.1909 103.848 26.1909H103.857C104.005 26.1922 105.21 26.2013 106.385 25.7611C106.975 25.5403 107.57 25.2019 108.018 24.682C108.47 24.1581 108.762 23.4591 108.762 22.542C108.762 21.9123 108.614 21.395 108.355 20.9691C108.093 20.5432 107.73 20.2218 107.314 19.971ZM131.465 14.2855C130.268 14.2855 129.145 14.709 128.211 15.3318V10.5214C128.211 10.3085 128.034 10.1465 127.828 10.1465H125.684C125.48 10.1465 125.301 10.3085 125.301 10.5214V25.5771C125.301 25.7901 125.478 25.9521 125.684 25.9521H127.828C128.033 25.9521 128.211 25.7901 128.211 25.5771V25.1287C129.064 25.7266 130.271 26.1771 131.465 26.1771C134.923 26.1771 137.516 23.4471 137.516 20.3269C137.516 16.8452 134.842 14.2855 131.465 14.2855ZM131.465 23.2478C129.911 23.2478 128.546 21.8651 128.546 20.3269C128.546 18.4583 130.011 17.2127 131.465 17.2127C133.202 17.2127 134.605 18.3836 134.605 20.3269C134.605 21.7406 133.47 23.2478 131.465 23.2478ZM122.003 14.5159H119.854C119.648 14.5159 119.471 14.6779 119.471 14.8908V21.0363C119.471 22.3127 118.394 23.3592 117.049 23.3592C117.043 23.3592 117.038 23.3592 117.031 23.3592C117.025 23.3592 117.019 23.3592 117.013 23.3592C115.668 23.3592 114.591 22.3127 114.591 21.0363V14.8908C114.591 14.6779 114.414 14.5159 114.208 14.5159H112.059C111.854 14.5159 111.677 14.6779 111.677 14.8908V21.0363C111.677 23.8817 114.072 26.1758 117.013 26.1758C117.019 26.1758 117.025 26.1758 117.031 26.1758C117.038 26.1758 117.043 26.1758 117.049 26.1758C119.989 26.1758 122.386 23.8817 122.386 21.0363V14.8908C122.386 14.6779 122.209 14.5159 122.003 14.5159ZM60.3535 19.971C59.5371 19.4758 58.49 19.2381 57.5779 19.0317L57.5596 19.0277C56.8965 18.8775 56.3147 18.7443 55.8953 18.5483C55.4799 18.3549 55.2912 18.1328 55.2912 17.8271C55.2912 17.5632 55.3908 17.3294 55.6267 17.1452C55.8691 16.9557 56.2701 16.8094 56.89 16.7729C57.9462 16.7729 58.7639 16.7977 59.3169 16.8225C59.5947 16.8343 59.8057 16.8473 59.9459 16.8565C60.0167 16.8617 60.0704 16.8643 60.1058 16.8669C60.1242 16.8682 60.1373 16.8695 60.1451 16.8695L60.1543 16.8708H60.1569L60.1661 16.8721H60.1753C60.3391 16.8721 60.4885 16.8408 60.5907 16.735C60.6811 16.6409 60.6994 16.5207 60.7073 16.4619C60.7073 16.458 60.7086 16.4541 60.7086 16.4515C60.7125 16.4266 60.7152 16.4084 60.7191 16.3914L60.7243 16.3692V15.0588C60.7243 14.8994 60.7139 14.7531 60.6523 14.6408C60.5763 14.501 60.4491 14.4566 60.3469 14.4343L60.3378 14.433L60.3286 14.4317H60.3246L60.3142 14.4304C60.305 14.4291 60.2919 14.4278 60.2749 14.4265C60.2395 14.4226 60.1871 14.4174 60.1176 14.4108C59.9774 14.3978 59.7677 14.3808 59.4847 14.3638C58.9185 14.3298 58.0589 14.2959 56.8821 14.2959H56.8782H56.8742C55.3672 14.352 54.2245 14.7701 53.4553 15.4311C52.6847 16.0935 52.3047 16.9871 52.3047 17.9539C52.3047 18.5901 52.4515 19.1114 52.7109 19.5412C52.9691 19.9697 53.3321 20.295 53.7462 20.5497C54.5626 21.0501 55.6083 21.2918 56.5191 21.5021L56.5374 21.506C57.2018 21.6589 57.785 21.7948 58.2043 21.9933C58.6184 22.1893 58.8111 22.4153 58.8111 22.7302C58.8111 22.9928 58.6892 23.2266 58.3944 23.4056C58.0877 23.5911 57.591 23.7152 56.8598 23.7152C56.029 23.7152 55.1222 23.6264 54.4198 23.5362C54.0686 23.4918 53.7711 23.4461 53.5601 23.4121C53.4553 23.3951 53.3714 23.3808 53.315 23.3716C53.2993 23.369 53.2862 23.3664 53.2744 23.3651C53.2652 23.3638 53.2561 23.3625 53.2495 23.3612L53.2338 23.3586L53.2286 23.3572L53.2102 23.3533H53.1906C53.0412 23.3533 52.8996 23.3808 52.8 23.4814C52.7122 23.5689 52.6926 23.6852 52.6847 23.7387C52.6834 23.7426 52.6834 23.7466 52.6834 23.7492C52.6782 23.7779 52.6742 23.7962 52.6703 23.8145L52.6651 23.8354L52.5799 25.313V25.3182C52.5799 25.4149 52.5943 25.5298 52.6467 25.633C52.7004 25.7428 52.7974 25.8408 52.9455 25.8787L52.9507 25.88L52.956 25.8813L52.9625 25.8473C52.956 25.8813 52.956 25.8813 52.956 25.8813H52.9573L52.9612 25.8826C52.9638 25.8839 52.9691 25.8839 52.9756 25.8852C52.9874 25.8878 53.0058 25.8904 53.0294 25.8956C53.0765 25.9048 53.1447 25.9165 53.2351 25.9309C53.416 25.9596 53.6794 25.9975 54.0201 26.0367C54.6989 26.1138 55.6791 26.1896 56.8847 26.1896H56.8939C57.042 26.1909 58.2463 26.2 59.4217 25.7598C60.0115 25.539 60.6064 25.2006 61.0546 24.6807C61.5067 24.1568 61.7989 23.4578 61.7989 22.5407C61.7989 21.911 61.6508 21.3937 61.3914 20.9678C61.1319 20.5432 60.7689 20.2218 60.3535 19.971ZM75.034 14.5159H72.8849C72.6791 14.5159 72.5022 14.6779 72.5022 14.8908V21.0368C72.5022 22.3132 71.425 23.3596 70.0805 23.3596C70.0739 23.3596 70.0687 23.3596 70.0621 23.3596C70.0556 23.3596 70.0504 23.3596 70.0438 23.3596C68.6993 23.3596 67.6221 22.3132 67.6221 21.0368V14.8908C67.6221 14.6779 67.4452 14.5159 67.2394 14.5159H65.0903C64.8846 14.5159 64.7076 14.6779 64.7076 14.8908V21.0368C64.7076 23.8822 67.1031 26.1763 70.0438 26.1763C70.0504 26.1763 70.0556 26.1763 70.0621 26.1763C70.0687 26.1763 70.0739 26.1763 70.0805 26.1763C73.0198 26.1763 75.4167 23.8822 75.4167 21.0368V14.8908C75.4167 14.6779 75.2397 14.5159 75.034 14.5159Z" fill="white"/>
<path fill-rule="evenodd" clip-rule="evenodd" d="M5.84439 19.5928C5.84439 19.8679 6.06521 20.0909 6.33753 20.0909H10.7393C11.0116 20.0909 11.2324 19.8679 11.2324 19.5928V17.1372H13.6616C13.9339 17.1372 14.1548 16.9533 14.1548 16.6782V15.1435C14.1548 14.8684 13.9339 14.6454 13.6616 14.6454H6.33753C6.06521 14.6454 5.84439 14.8684 5.84439 15.1435V19.5928ZM5.38806 9.23591C5.38806 8.96085 5.16723 8.73779 4.89492 8.73779L0.493142 8.73779C0.220827 8.73779 0 8.96085 0 9.23591V13.8006C0 14.0757 0.220827 14.2987 0.493142 14.2987L1.96976 14.2987C2.24207 14.2987 2.466 14.0757 2.466 13.8006V11.2296H4.89492C5.16723 11.2296 5.38806 11.0434 5.38806 10.7684V9.23591ZM8.42443 26.9369C8.42443 26.6618 8.20273 26.4388 7.93042 26.4388L6.22149 26.4388C5.94918 26.4388 5.73034 26.6619 5.73034 26.937V28.6565C5.73034 28.9315 5.94918 29.1614 6.22149 29.1614L7.93042 29.1613C8.20273 29.1613 8.42443 28.9314 8.42443 28.6564V26.9369ZM43.0689 8.7378L38.6671 8.73779C38.3948 8.73779 38.174 8.96085 38.174 9.23591V10.7315C38.174 11.0065 38.3948 11.2296 38.6671 11.2296H41.0962V13.8006C41.0962 14.0757 41.317 14.2987 41.5893 14.2987L43.0689 14.2988C43.3412 14.2988 43.5621 14.0757 43.5621 13.8006V9.23591C43.5621 8.96085 43.3412 8.7378 43.0689 8.7378ZM37.2245 14.6453H29.9004C29.6281 14.6453 29.4073 14.8684 29.4073 15.1435V16.639C29.4073 16.9141 29.6281 17.1371 29.9004 17.1371H32.3295V19.5928C32.3295 19.8679 32.4959 20.0909 32.7682 20.0909H37.2245C37.4968 20.0909 37.7177 19.8679 37.7177 19.5928V15.1435C37.7177 14.8684 37.4968 14.6453 37.2245 14.6453ZM34.3236 29.5075H31.7806V27.0691C31.7806 26.7941 31.5054 26.5537 31.2331 26.5537H28.8584V21.1448C28.8584 20.8697 28.5883 20.6467 28.316 20.6467H25.9362V15.2832C25.9362 15.0081 25.6712 14.7386 25.3989 14.7386H18.0902C17.8179 14.7386 17.6258 15.0081 17.6258 15.2832V20.6462H15.1732C14.9008 20.6462 14.7036 20.9011 14.7036 21.1762V26.5537H12.2561C11.9838 26.5537 11.7814 26.7941 11.7814 27.0691V29.5075H9.22499C8.95267 29.5075 8.74521 29.7405 8.74521 30.0156V31.5044C8.74521 31.7794 8.95267 31.9998 9.22499 31.9998H13.6166C13.8889 31.9998 14.1334 31.7794 14.1334 31.5044V29.046H16.6764C16.9487 29.046 17.1695 28.833 17.1695 28.5579V23.1385H26.3924V28.5479C26.3924 28.823 26.5691 29.046 26.8414 29.046H29.4287V31.5017C29.4287 31.7767 29.6002 31.9998 29.8725 31.9998H34.3236C34.5959 31.9998 34.8167 31.7767 34.8167 31.5017V30.0156C34.8167 29.7405 34.5959 29.5075 34.3236 29.5075ZM37.3334 26.4388H35.6308C35.3584 26.4388 35.1376 26.6619 35.1376 26.937V28.6628C35.1376 28.9378 35.3584 29.1614 35.6308 29.1614H37.3334C37.6058 29.1614 37.8317 28.9378 37.8317 28.6628V26.937C37.8317 26.6619 37.6058 26.4388 37.3334 26.4388Z" fill="white"/>
<path fill-rule="evenodd" clip-rule="evenodd" d="M12.4623 8.38377H30.866C31.1396 8.38377 31.3615 8.2086 31.3615 7.93411V6.18888C31.3615 5.91431 31.1396 5.6918 30.866 5.6918H28.7786V3.38986C28.7786 3.11537 28.5567 2.89278 28.2831 2.89278L25.7925 2.89291V0.497215C25.7925 0.222726 25.5706 0.000134788 25.297 0.000134788L18.0314 0C17.7578 0 17.5359 0.222591 17.5359 0.49708V2.89278H15.1383C14.8647 2.89278 14.6428 3.11537 14.6428 3.38986V5.6918H12.4623C12.1887 5.6918 11.9668 5.91431 11.9668 6.18888V7.93411C11.9668 8.2086 12.1887 8.38377 12.4623 8.38377Z" fill="white"/>
</svg>
